<?xml version="1.0" encoding="UTF-8"?>
<svg id="Layer_2" data-name="Layer 2" xmlns="http://www.w3.org/2000/svg" viewBox="-10 -10 538.28 538.28">
  <defs>
    <style>
      .cls-1 {
        fill: none;
        stroke: #fff;
        stroke-linecap: round;
        stroke-linejoin: round;
        stroke-width: 5px;
      }

      .cls-2 {
        fill: #fff;
        stroke-width: 0px;
      }
    </style>
  </defs>
  <g id="OP">
    <g>
      <path class="cls-1" d="M496.93,38.27v434.48c-14.11,0-25.55,11.44-25.55,25.55H38.27c0-14.11-11.44-25.55-25.55-25.55V38.27c14.11,0,25.55-11.44,25.55-25.55h433.11c0,14.11,11.44,25.55,25.55,25.55Z"/>
      <path class="cls-2" d="M13.96.95l1.4,5.19c.52,1.92,2.02,3.42,3.94,3.94l5.19,1.4c1.26.34,1.26,2.13,0,2.48l-5.19,1.4c-1.92.52-3.42,2.02-3.94,3.94l-1.4,5.19c-.34,1.26-2.13,1.26-2.48,0l-1.4-5.19c-.52-1.92-2.02-3.42-3.94-3.94l-5.19-1.4c-1.26-.34-1.26-2.13,0-2.48l5.19-1.4c1.92-.52,3.42-2.02,3.94-3.94l1.4-5.19c.34-1.26,2.13-1.26,2.48,0Z"/>
      <path class="cls-2" d="M498.17.95l1.4,5.19c.52,1.92,2.02,3.42,3.94,3.94l5.19,1.4c1.26.34,1.26,2.13,0,2.48l-5.19,1.4c-1.92.52-3.42,2.02-3.94,3.94l-1.4,5.19c-.34,1.26-2.13,1.26-2.48,0l-1.4-5.19c-.52-1.92-2.02-3.42-3.94-3.94l-5.19-1.4c-1.26-.34-1.26-2.13,0-2.48l5.19-1.4c1.92-.52,3.42-2.02,3.94-3.94l1.4-5.19c.34-1.26,2.13-1.26,2.48,0Z"/>
      <path class="cls-2" d="M13.96,486.53l1.4,5.19c.52,1.92,2.02,3.42,3.94,3.94l5.19,1.4c1.26.34,1.26,2.13,0,2.48l-5.19,1.4c-1.92.52-3.42,2.02-3.94,3.94l-1.4,5.19c-.34,1.26-2.13,1.26-2.48,0l-1.4-5.19c-.52-1.92-2.02-3.42-3.94-3.94l-5.19-1.4c-1.26-.34-1.26-2.13,0-2.48l5.19-1.4c1.92-.52,3.42-2.02,3.94-3.94l1.4-5.19c.34-1.26,2.13-1.26,2.48,0Z"/>
      <path class="cls-2" d="M498.17,486.53l1.4,5.19c.52,1.92,2.02,3.42,3.94,3.94l5.19,1.4c1.26.34,1.26,2.13,0,2.48l-5.19,1.4c-1.92.52-3.42,2.02-3.94,3.94l-1.4,5.19c-.34,1.26-2.13,1.26-2.48,0l-1.4-5.19c-.52-1.92-2.02-3.42-3.94-3.94l-5.19-1.4c-1.26-.34-1.26-2.13,0-2.48l5.19-1.4c1.92-.52,3.42-2.02,3.94-3.94l1.4-5.19c.34-1.26,2.13-1.26,2.48,0Z"/>
    </g>
  </g>
</svg>
