<?xml version="1.0" encoding="UTF-8"?>
<svg id="Layer_2" data-name="Layer 2" xmlns="http://www.w3.org/2000/svg" viewBox="-10 -10 538.28 538.28">
  <defs>
    <style>
      .cls-1 {
        fill: #00000000;
      }

      .cls-1, .cls-2, .cls-3 {
        stroke-width: 0px;
      }

      .cls-4 {
        fill: none;
        stroke: #fff;
        stroke-linecap: round;
        stroke-linejoin: round;
        stroke-width: 5px;
      }

      .cls-2 {
        fill: #fff;
      }

      .cls-3 {
        fill: #fff;
      }
    </style>
  </defs>
  <g id="OP">
    <g>
      <path class="cls-1" d="M0,0v518.28h518.28V0H0ZM4.58,15.11l5.19-1.4c1.92-.52,3.42-2.02,3.94-3.94l1.4-5.19c.34-1.27,2.14-1.27,2.48,0l1.4,5.19c.52,1.92,2.02,3.42,3.94,3.94l5.19,1.4c1.27.34,1.27,2.14,0,2.48l-5.19,1.4c-1.92.52-3.42,2.02-3.94,3.94l-1.4,5.19c-.34,1.27-2.14,1.27-2.48,0l-1.4-5.19c-.52-1.92-2.02-3.42-3.94-3.94l-5.19-1.4c-1.27-.34-1.27-2.14,0-2.48ZM28.12,503.17l-5.19,1.4c-1.92.52-3.42,2.02-3.94,3.94l-1.4,5.19c-.34,1.27-2.14,1.27-2.48,0l-1.4-5.19c-.52-1.92-2.02-3.42-3.94-3.94l-5.19-1.4c-1.27-.34-1.27-2.14,0-2.48l5.19-1.4c1.92-.52,3.42-2.02,3.94-3.94l1.4-5.19c.34-1.27,2.14-1.27,2.48,0l1.4,5.19c.52,1.92,2.02,3.42,3.94,3.94l5.19,1.4c1.27.34,1.27,2.14,0,2.48ZM475.01,501.93H41.9c0-14.11-11.44-25.55-25.55-25.55V41.9c14.11,0,25.55-11.44,25.55-25.55h433.11c0,14.11,11.44,25.55,25.55,25.55v434.48c-14.11,0-25.55,11.44-25.55,25.55ZM512.33,503.17l-5.19,1.4c-1.92.52-3.42,2.02-3.94,3.94l-1.4,5.19c-.34,1.27-2.14,1.27-2.48,0l-1.4-5.19c-.52-1.92-2.02-3.42-3.94-3.94l-5.19-1.4c-1.27-.34-1.27-2.14,0-2.48l5.19-1.4c1.92-.52,3.42-2.02,3.94-3.94l1.4-5.19c.34-1.27,2.14-1.27,2.48,0l1.4,5.19c.52,1.92,2.02,3.42,3.94,3.94l5.19,1.4c1.27.34,1.27,2.14,0,2.48ZM512.33,17.59l-5.19,1.4c-1.92.52-3.42,2.02-3.94,3.94l-1.4,5.19c-.34,1.27-2.14,1.27-2.48,0l-1.4-5.19c-.52-1.92-2.02-3.42-3.94-3.94l-5.19-1.4c-1.27-.34-1.27-2.14,0-2.48l5.19-1.4c1.92-.52,3.42-2.02,3.94-3.94l1.4-5.19c.34-1.27,2.14-1.27,2.48,0l1.4,5.19c.52,1.92,2.02,3.42,3.94,3.94l5.19,1.4c1.27.34,1.27,2.14,0,2.48Z"/>
      <g>
        <path class="cls-4" d="M500.56,41.9v434.48c-14.11,0-25.55,11.44-25.55,25.55H41.9c0-14.11-11.44-25.55-25.55-25.55V41.9c14.11,0,25.55-11.44,25.55-25.55h433.11c0,14.11,11.44,25.55,25.55,25.55Z"/>
        <path class="cls-3" d="M28.12,17.59l-5.19,1.4c-1.92.52-3.42,2.02-3.94,3.94l-1.4,5.19c-.34,1.27-2.14,1.27-2.48,0l-1.4-5.19c-.52-1.92-2.02-3.42-3.94-3.94l-5.19-1.4c-1.27-.34-1.27-2.14,0-2.48l5.19-1.4c1.92-.52,3.42-2.02,3.94-3.94l1.4-5.19c.34-1.27,2.14-1.27,2.48,0l1.4,5.19c.52,1.92,2.02,3.42,3.94,3.94l5.19,1.4c1.27.34,1.27,2.14,0,2.48Z"/>
        <path class="cls-3" d="M512.33,17.59l-5.19,1.4c-1.92.52-3.42,2.02-3.94,3.94l-1.4,5.19c-.34,1.27-2.14,1.27-2.48,0l-1.4-5.19c-.52-1.92-2.02-3.42-3.94-3.94l-5.19-1.4c-1.27-.34-1.27-2.14,0-2.48l5.19-1.4c1.92-.52,3.42-2.02,3.94-3.94l1.4-5.19c.34-1.27,2.14-1.27,2.48,0l1.4,5.19c.52,1.92,2.02,3.42,3.94,3.94l5.19,1.4c1.27.34,1.27,2.14,0,2.48Z"/>
        <path class="cls-3" d="M28.12,503.17l-5.19,1.4c-1.92.52-3.42,2.02-3.94,3.94l-1.4,5.19c-.34,1.27-2.14,1.27-2.48,0l-1.4-5.19c-.52-1.92-2.02-3.42-3.94-3.94l-5.19-1.4c-1.27-.34-1.27-2.14,0-2.48l5.19-1.4c1.92-.52,3.42-2.02,3.94-3.94l1.4-5.19c.34-1.27,2.14-1.27,2.48,0l1.4,5.19c.52,1.92,2.02,3.42,3.94,3.94l5.19,1.4c1.27.34,1.27,2.14,0,2.48Z"/>
        <path class="cls-3" d="M512.33,503.17l-5.19,1.4c-1.92.52-3.42,2.02-3.94,3.94l-1.4,5.19c-.34,1.27-2.14,1.27-2.48,0l-1.4-5.19c-.52-1.92-2.02-3.42-3.94-3.94l-5.19-1.4c-1.27-.34-1.27-2.14,0-2.48l5.19-1.4c1.92-.52,3.42-2.02,3.94-3.94l1.4-5.19c.34-1.27,2.14-1.27,2.48,0l1.4,5.19c.52,1.92,2.02,3.42,3.94,3.94l5.19,1.4c1.27.34,1.27,2.14,0,2.48Z"/>
      </g>
      <path class="cls-2" d="M28.12,503.17l-5.19,1.4c-1.92.52-3.42,2.02-3.94,3.94l-1.4,5.19c-.34,1.27-2.14,1.27-2.48,0l-1.4-5.19c-.52-1.92-2.02-3.42-3.94-3.94l-5.19-1.4c-1.27-.34-1.27-2.14,0-2.48l5.19-1.4c1.92-.52,3.42-2.02,3.94-3.94l1.4-5.19c.34-1.27,2.14-1.27,2.48,0l1.4,5.19c.52,1.92,2.02,3.42,3.94,3.94l5.19,1.4c1.27.34,1.27,2.14,0,2.48Z"/>
      <path class="cls-2" d="M4.58,15.11l5.19-1.4c1.92-.52,3.42-2.02,3.94-3.94l1.4-5.19c.34-1.27,2.14-1.27,2.48,0l1.4,5.19c.52,1.92,2.02,3.42,3.94,3.94l5.19,1.4c1.27.34,1.27,2.14,0,2.48l-5.19,1.4c-1.92.52-3.42,2.02-3.94,3.94l-1.4,5.19c-.34,1.27-2.14,1.27-2.48,0l-1.4-5.19c-.52-1.92-2.02-3.42-3.94-3.94l-5.19-1.4c-1.27-.34-1.27-2.14,0-2.48Z"/>
      <path class="cls-2" d="M512.33,503.17l-5.19,1.4c-1.92.52-3.42,2.02-3.94,3.94l-1.4,5.19c-.34,1.27-2.14,1.27-2.48,0l-1.4-5.19c-.52-1.92-2.02-3.42-3.94-3.94l-5.19-1.4c-1.27-.34-1.27-2.14,0-2.48l5.19-1.4c1.92-.52,3.42-2.02,3.94-3.94l1.4-5.19c.34-1.27,2.14-1.27,2.48,0l1.4,5.19c.52,1.92,2.02,3.42,3.94,3.94l5.19,1.4c1.27.34,1.27,2.14,0,2.48Z"/>
      <path class="cls-2" d="M488.79,15.11l5.19-1.4c1.92-.52,3.42-2.02,3.94-3.94l1.4-5.19c.34-1.27,2.14-1.27,2.48,0l1.4,5.19c.52,1.92,2.02,3.42,3.94,3.94l5.19,1.4c1.27.34,1.27,2.14,0,2.48l-5.19,1.4c-1.92.52-3.42,2.02-3.94,3.94l-1.4,5.19c-.34,1.27-2.14,1.27-2.48,0l-1.4-5.19c-.52-1.92-2.02-3.42-3.94-3.94l-5.19-1.4c-1.27-.34-1.27-2.14,0-2.48Z"/>
    </g>
  </g>
</svg>
